<svg xmlns="http://www.w3.org/2000/svg" viewBox="0 0 50 50"><title>isotype-filling-color</title><g id="Capa_2" data-name="Capa 2"><g id="Capa_7" data-name="Capa 7"><path d="M25,0A25,25,0,1,0,50,25,25,25,0,0,0,25,0ZM14.29,10.71a3.57,3.57,0,1,1-3.57,3.57A3.57,3.57,0,0,1,14.29,10.71Zm0,10.71A3.58,3.58,0,1,1,10.72,25,3.57,3.57,0,0,1,14.29,21.42ZM28.57,39.28H10.72V32.14H28.57Zm7.15,0a3.57,3.57,0,1,1,3.57-3.57A3.57,3.57,0,0,1,35.72,39.28Zm3.57-10.71H21.43V21.42H39.29Z" style="fill:#092f42"/><rect x="10.72" y="32.14" width="17.85" height="7.14" style="fill:#1fc891"/><path d="M39.29,35.71a3.58,3.58,0,1,1-3.57-3.57A3.57,3.57,0,0,1,39.29,35.71Z" style="fill:#1fc891"/><circle cx="14.29" cy="14.28" r="3.57" style="fill:#fff"/><path d="M17.86,25a3.57,3.57,0,1,1-3.57-3.58A3.57,3.57,0,0,1,17.86,25Z" style="fill:#fff"/><rect x="21.43" y="21.42" width="17.86" height="7.15" style="fill:#fff"/></g></g></svg>